<svg xmlns="http://www.w3.org/2000/svg" viewBox="0 0 35.83 27.42"><defs><style>.cls-1{fill:#231f20;}</style></defs><title>Asset 1</title><g id="Layer_2" data-name="Layer 2"><g id="Layer_1-2" data-name="Layer 1"><path class="cls-1" d="M10,17.3a3.29,3.29,0,0,0,2,.62,3.88,3.88,0,0,0,1.27-.21L34,10.46a1.73,1.73,0,0,0,1.26-1.21,1.23,1.23,0,0,0-.49-1.18L25.85.62a3.28,3.28,0,0,0-2-.62,3.88,3.88,0,0,0-1.27.21L1.85,7.45A1.74,1.74,0,0,0,.6,8.66a1.23,1.23,0,0,0,.49,1.18L10,17.3Z"/><path class="cls-1" d="M35.82,11v-.75a3,3,0,0,1-1.53,1.12L13.62,18.65a4.9,4.9,0,0,1-1.6.26,4.23,4.23,0,0,1-2.69-.86L.44,10.61A2.61,2.61,0,0,1,0,10.13v.3H0v.37a1.21,1.21,0,0,0,.5.91l8.88,7.45a4.94,4.94,0,0,0,4.33.5l20.67-7.25c.9-.32,1.4-.85,1.42-1.39Zm0,6.42V15.67c0,.55-.51,1.09-1.43,1.42L13.72,24.33a4.94,4.94,0,0,1-4.33-.5L.51,16.38a1.21,1.21,0,0,1-.5-.91v1.18a1.21,1.21,0,0,0,.5.91L9.39,25a4.94,4.94,0,0,0,4.33.5l20.67-7.25c.91-.32,1.41-.85,1.43-1.4v.6Zm0-2.27V13.74c0,.55-.51,1.08-1.43,1.4L13.72,22.39a4.94,4.94,0,0,1-4.33-.5L.51,14.44a1.21,1.21,0,0,1-.5-.91v.81H0v.37a1.21,1.21,0,0,0,.5.91l8.88,7.45a4.94,4.94,0,0,0,4.33.5l20.67-7.25c.91-.32,1.41-.85,1.43-1.4v.28Zm0-2.22V11.81c0,.54-.52,1.07-1.42,1.39L13.72,20.44a4.94,4.94,0,0,1-4.33-.5L.51,12.49a1.21,1.21,0,0,1-.5-.91v.8H0v.37a1.21,1.21,0,0,0,.5.91l8.88,7.45a4.94,4.94,0,0,0,4.33.5l20.67-7.25c.91-.32,1.41-.85,1.43-1.4ZM0,17.26v1a1.21,1.21,0,0,0,.5.91l8.88,7.45a4.94,4.94,0,0,0,4.33.5L34.39,19.9c.93-.32,1.43-.87,1.43-1.43V17.6c0,.56-.51,1.1-1.43,1.43L13.72,26.28a4.94,4.94,0,0,1-4.33-.5L.51,18.32a1.21,1.21,0,0,1-.5-.91v-.15Z"/></g></g></svg>