<?xml version="1.0" encoding="utf-8"?>
<!-- Generator: Adobe Illustrator 19.2.1, SVG Export Plug-In . SVG Version: 6.00 Build 0)  -->
<svg version="1.1" id="Layer_1" xmlns="http://www.w3.org/2000/svg" xmlns:xlink="http://www.w3.org/1999/xlink" x="0px" y="0px"
	 viewBox="0 0 512 512" style="enable-background:new 0 0 512 512;" xml:space="preserve">
<path d="M255.5,27.1C199.8,59.2,101.8,81,39.8,67.2c1.2,160,55.9,374.1,216.8,417.2C422.3,440,472.8,227.3,474.1,67.2
	C412.8,80.6,304.7,55.5,255.5,27.1L255.5,27.1z M258,72.1c31.9-0.3,63.8,5.1,95.6,17.3l35.3,146.1h-63.8c9.4,29.7,6.5,70.1-9.9,99.8
	l-17.3-49.9l-19.8,54.2l-19.8-50l-19.8,49.4l-19.2-53.6L202,334.7c-14.5-26.5-23.8-65-9.9-99.2h-64.4L163,89.4
	C194.4,78.5,226.2,72.4,258,72.1L258,72.1z M85.2,114.2l11.5,2.7c11.3,2.6,24.9,2.8,39.6,1.3l-3.8,19.6c-9.8,0.6-19.3,0.4-28.3-0.7
	c1.6,59.1,12.2,125,35.8,180.2c8.4,19.5,18.3,37.7,29.9,53.8l-3.3,25.9c-17.9-21-32.4-45.7-43.8-72.3
	C96.5,262.7,85.8,190,85.3,126.1L85.2,114.2L85.2,114.2z M434.4,114.3l-0.1,11.8c-0.5,63.8-10.4,136.4-36.6,198.2
	c-11.8,27.9-27.1,53.6-46.3,75.2l-3.7-24.7c13-17.1,23.9-36.6,32.8-57.8c23.3-55.1,33.3-120.7,34.8-180c-9.3,1-19.3,1-29.5,0.2
	l-4.1-19.3c15.7,1.7,30.1,1.6,41.2-0.9L434.4,114.3L434.4,114.3z M172.6,155.7L161.5,207l74.7-6.7
	C223.4,174.2,200.5,161.6,172.6,155.7L172.6,155.7z M344.2,155.7c-26.5,7.9-49.6,20.4-63.6,44.6l74.7,6.7L344.2,155.7z M258.4,214.5
	l-7.4,9.8l-23.1,30.5l14.9,11.3l15.6-20.6l15.6,20.6l14.9-11.3l-23.1-30.5L258.4,214.5L258.4,214.5z M201.5,352.3l14.5,56.8l23-47.6
	l19.3,59.3l19.3-59.9l21.7,48.2l15.8-56.2c15.6,18.4,20.8,39.6,18.3,65.8c-48.6,37.8-96.9,42.9-148.9,0
	C184.7,394.5,183.9,374.4,201.5,352.3L201.5,352.3z"/>
</svg>
