<?xml version="1.0" encoding="utf-8"?>
<!-- Generator: Adobe Illustrator 19.2.1, SVG Export Plug-In . SVG Version: 6.00 Build 0)  -->
<svg version="1.1" id="Layer_1" xmlns="http://www.w3.org/2000/svg" xmlns:xlink="http://www.w3.org/1999/xlink" x="0px" y="0px"
	 viewBox="0 0 512 512" style="enable-background:new 0 0 512 512;" xml:space="preserve">
<path d="M209,35.5c-1.3,0-2.5,0-3.7,0.1c-16.9,1-29.6,9.1-42.3,24.3c30.5,58,54.6,119.7,73.5,184.4c-7.2,4-14.4,8.1-21.3,12.5
	c-31.6-57.6-71.9-108.1-117.5-154.5c-7.3-0.1-17.5,4.1-25.9,11.6c-8.4,7.5-14.6,17.8-16.1,27.3C100,184,139.3,232.9,170,291.7
	c-6.6,6.4-12.8,13.2-18.5,20.4c-33.3-31-68.2-54.2-103.9-75.4c-7,2.4-13.4,8.3-17.8,17c-4.4,8.7-6.1,19.5-4.8,29.4
	c0.2,0.1,0.3,0.2,0.5,0.3c2.9,1.8,6.8,4.3,11.6,7.6c9.6,6.6,22.6,16,37.2,27.2c29.1,22.3,64.1,51.2,88.6,77.2
	c15,15.9,41.8,41.6,56.2,57.8c18.2,20.5,52.2,26.4,86.9,19.8c34.6-6.6,68.5-25.8,84.1-49.5c10.2-15.5,15.5-30.5,21.3-47
	c12.1-34.6,29.3-87,82.7-138.7c-6.5-13.9-13.6-21.9-20-25.4c-7.4-3.9-14.8-3.8-24.6,0.4c-18.1,7.7-40.8,30.7-62.2,59.2
	c-5.1,7.2-10.2,14.1-15.2,20.9l-7.6,10.5c-15.7,22.2-29,44.7-33.2,73.5l-18.5-2.7c6.4-43.7,30.4-73.9,52.3-103.6
	c6.4-70.1,6.6-147.3,1.1-217.5c-6.2-6.2-17-9.7-28.5-9.5c-11.1,0.2-21.9,3.9-28.6,9c3.5,50.6,9.3,100.6,5.3,153.8
	c-9.3,4.3-18.7,8.5-28,12.8C270.9,158.6,248.2,97.7,221,36.6C216.8,36,212.8,35.6,209,35.5L209,35.5z"/>
</svg>
