<?xml version="1.0" encoding="utf-8"?>
<!-- Generator: Adobe Illustrator 19.2.1, SVG Export Plug-In . SVG Version: 6.00 Build 0)  -->
<svg version="1.1" id="Layer_1" xmlns="http://www.w3.org/2000/svg" xmlns:xlink="http://www.w3.org/1999/xlink" x="0px" y="0px"
	 viewBox="0 0 512 512" style="enable-background:new 0 0 512 512;" xml:space="preserve">
<path d="M309.8,35.5c-3.8,0-7.8,0.5-12,1.1c-27.2,61.1-49.9,122-65.4,182.8c-9.3-4.3-18.6-8.6-28-12.8
	c-3.9-53.1,1.9-103.1,5.3-153.8c-6.7-5.1-17.5-8.8-28.6-9c-11.6-0.2-22.3,3.3-28.5,9.5c-5.4,70.2-5.3,147.4,1.1,217.5
	c21.9,29.7,45.9,59.9,52.3,103.6l-18.5,2.7c-4.2-28.8-17.6-51.3-33.2-73.5l-7.6-10.5c-5-6.9-10.1-13.8-15.2-20.9
	c-21.4-28.5-44.1-51.5-62.2-59.2c-9.8-4.2-17.3-4.4-24.6-0.4c-6.5,3.5-13.5,11.5-20,25.4c53.4,51.7,70.6,104,82.7,138.7
	c5.8,16.5,11.1,31.5,21.3,47c15.6,23.7,49.4,42.9,84.1,49.5c34.6,6.6,68.7,0.7,86.9-19.8c14.4-16.2,41.2-41.9,56.2-57.8
	c24.5-26.1,59.5-55,88.6-77.2c14.6-11.1,27.6-20.6,37.2-27.2c4.8-3.3,8.7-5.8,11.6-7.6c0.2-0.1,0.3-0.2,0.5-0.3
	c1.3-9.9-0.4-20.7-4.8-29.4c-4.4-8.7-10.8-14.7-17.8-17c-35.7,21.3-70.6,44.4-103.9,75.4c-5.7-7.3-11.9-14.1-18.5-20.4
	c30.7-58.8,70-107.8,114.3-150.4c-1.6-9.6-7.8-19.8-16.1-27.3c-8.4-7.6-18.5-11.7-25.9-11.6c-45.6,46.4-85.9,96.9-117.5,154.5
	c-6.9-4.4-14-8.5-21.3-12.5c18.9-64.7,43-126.4,73.5-184.4c-12.8-15.2-25.5-23.3-42.3-24.3C312.3,35.5,311,35.5,309.8,35.5
	L309.8,35.5z"/>
</svg>
