<svg xmlns="http://www.w3.org/2000/svg" viewBox="0 0 60.22 46.4"><defs><style>.cls-1{fill:#231f20;}</style></defs><title>Asset 1</title><g id="Layer_2" data-name="Layer 2"><g id="Layer_1-2" data-name="Layer 1"><path class="cls-1" d="M55.9,5.81,45.16,3.91A5.86,5.86,0,0,0,39.63,0h-20c-2.47,0-3.84,1.67-4.19,4L4.56,5.81A5.41,5.41,0,0,0,.07,11.87l5.2,30.21a5.18,5.18,0,0,0,6,4.25L30,43l18.75,3.31a5.24,5.24,0,0,0,6.06-4.25l5.33-30.21A5.24,5.24,0,0,0,55.9,5.81ZM19.64,4H31.43a5.19,5.19,0,0,0-1.28,2.58L24.83,36.79c0,.07,0,.14,0,.21H19.64c-.82,0-.29-.34-.29-1.16V5.16c0-.82-.54-1.16.29-1.16ZM10.57,42.67a1.51,1.51,0,0,1-1.73-1.23L3.51,11.23c-.14-.81.89-1.59,1.7-1.74L15.35,7.78V35.84c0,2.89,1.4,5.16,4.29,5.16h.51l-9.58,1.67ZM56.46,11.22,51.14,41.43a1.5,1.5,0,0,1-1.73,1.21L29.72,39.17a1.5,1.5,0,0,1-1.21-1.73L33.83,7.23A1.5,1.5,0,0,1,35.57,6L55.25,9.49a1.5,1.5,0,0,1,1.21,1.73Z"/></g></g></svg>